<svg xmlns="http://www.w3.org/2000/svg" viewBox="0 0 32 32">
  <!-- Floorball from the club logo, redrawn by hand. Temporary until the club sends the SVG logo. -->
  <rect width="32" height="32" rx="6" fill="#000000"/>
  <circle cx="16" cy="16" r="12.5" fill="#fff112"/>
  <g fill="#000000">
    <ellipse cx="11.5" cy="9.5" rx="2.4" ry="1.5" transform="rotate(-20 11.5 9.5)"/>
    <ellipse cx="20" cy="8" rx="2.2" ry="1.1" transform="rotate(20 20 8)"/>
    <circle cx="18" cy="14" r="2"/>
    <circle cx="11.5" cy="17" r="2"/>
    <circle cx="17.5" cy="21" r="2"/>
    <ellipse cx="25" cy="14" rx="1.1" ry="2.2" transform="rotate(-20 25 14)"/>
    <ellipse cx="7" cy="14" rx="1" ry="2.2" transform="rotate(20 7 14)"/>
    <ellipse cx="24.5" cy="21.5" rx="1" ry="2.2" transform="rotate(25 24.5 21.5)"/>
    <ellipse cx="9.5" cy="23" rx="2" ry="1" transform="rotate(40 9.5 23)"/>
    <ellipse cx="16.5" cy="26.5" rx="2.2" ry="1"/>
  </g>
</svg>
